PathFileType	4	(X/Y/Z)	C:/Users/opensim2020/Desktop/walking_exp_matlab/subject03_walking14_straight_02.trc																																																																																																																																											
DataRate	CameraRate	NumFrames	NumMarkers	Units	OrigDataRate	OrigDataStartFrame	OrigNumFrames																																																																																																																																							
100	100	7	47	mm	100	1044	168																																																																																																																																							
Frame#	Time	LFHD			RFHD			LBHD			RBHD			C7			T10			CLAV			STRN			RBAK			LSHO			LUPA			LELB			LFRM			LWRA			LWRB			LFIN			RSHO			RUPA			RELB			RFRM			RWRA			RWRB			RFIN			LASI			RASI			LPSI			RPSI			LTHI			LKNE			LTIB			LANK			LHEE			LTOE			RTHI			RKNE			RTIB			RANK			RHEE			RTOE			*39			*40			*41			*42			*43			*44			*45			*46		
		X1	Y1	Z1	X2	Y2	Z2	X3	Y3	Z3	X4	Y4	Z4	X5	Y5	Z5	X6	Y6	Z6	X7	Y7	Z7	X8	Y8	Z8	X9	Y9	Z9	X10	Y10	Z10	X11	Y11	Z11	X12	Y12	Z12	X13	Y13	Z13	X14	Y14	Z14	X15	Y15	Z15	X16	Y16	Z16	X17	Y17	Z17	X18	Y18	Z18	X19	Y19	Z19	X20	Y20	Z20	X21	Y21	Z21	X22	Y22	Z22	X23	Y23	Z23	X24	Y24	Z24	X25	Y25	Z25	X26	Y26	Z26	X27	Y27	Z27	X28	Y28	Z28	X29	Y29	Z29	X30	Y30	Z30	X31	Y31	Z31	X32	Y32	Z32	X33	Y33	Z33	X34	Y34	Z34	X35	Y35	Z35	X36	Y36	Z36	X37	Y37	Z37	X38	Y38	Z38	X39	Y39	Z39	X40	Y40	Z40	X41	Y41	Z41	X42	Y42	Z42	X43	Y43	Z43	X44	Y44	Z44	X45	Y45	Z45	X46	Y46	Z46	X47	Y47	Z47
																																																																																																																																														
1	0	-1166.22144	1598.46484	898.45648	-1184.59192	1605.99146	1029.97424	-1285.89929	1534.11841	889.80792	-1298.35059	1541.7168	1019.76605	-1301.15344	1383.81238	945.68292	-1333.91003	1074.78064	948.11835	-1177.41321	1310.24548	962.43652	-1131.92542	1144.39331	959.61292	-1362.09534	1209.33655	1026.33447	-1204.82458	1350.19861	802.49127	-1170.52771	1160.4928	732.31824	-1125.67871	1046.47449	730.75098	-1037.65332	962.16235	763.60938	-962.92395	890.32233	826.84412	-969.47675	871.60522	774.71021	-907.01587	827.10254	807.08044	-1247.91101	1331.17078	1114.49341	-1304.44336	1113.46021	1175.28296	-1321.18982	1000.75629	1184.65686	-1355.81421	867.29315	1185.22302	-1359.56104	765.0882	1152.92554	-1396.92773	775.06287	1192.67688	-1411.51721	699.7074	1177.11267	-1176.70422	900.88666	845.10687	-1175.59802	917.09784	1082.06873	-1336.86597	931.42395	897.36261	-1337.12231	942.69244	1044.7594	-1293.43176	611.30249	825.02631	-1347.00281	442.11639	869.5694	-1469.31799	283.23834	870.0224	-1575.78418	100.53629	915.79694	-1630.052	84.17039	946.21594	-1447.90271	27.09469	964.39392	-1168.84827	629.18896	1145.92224	-1087.23621	471.05832	1109.78589	-1063.52441	283.84747	1124.07312	-1004.70776	70.93626	1089.58557	-1036.75574	29.55441	1037.07605	-858.1402	65.47272	1069.74036	-1264.11914	1645.15198	936.48187	NaN	NaN	NaN	NaN	NaN	NaN	NaN	NaN	NaN	NaN	NaN	NaN	NaN	NaN	NaN	NaN	NaN	NaN	NaN	NaN	NaN
2	0.01	-1153.04297	1598.06519	900.16675	-1171.16394	1605.42102	1031.77991	-1272.69946	1533.95837	891.66101	-1285.03491	1541.37659	1021.60077	-1288.06616	1383.026	947.54449	-1319.3855	1073.75647	949.49719	-1163.82153	1309.99902	964.04474	-1117.68542	1144.28198	961.12445	-1348.09814	1208.30981	1027.93823	-1192.17261	1349.94324	804.11487	-1158.80066	1160.1283	733.41656	-1114.28577	1046.18213	731.7309	-1025.19177	963.42352	764.88605	-949.40204	893.30438	828.65442	-955.82568	874.07391	776.73047	-892.44501	831.06256	809.29565	-1234.35352	1330.72961	1116.11182	-1290.79541	1113.0813	1176.93127	-1307.59497	1000.44025	1186.29834	-1342.60449	867.04321	1186.80334	-1346.69055	764.91205	1154.53918	-1383.9679	774.97369	1194.323	-1398.58362	699.54736	1178.92871	-1162.26135	900.32385	846.55176	-1160.27551	917.10461	1083.66138	-1322.18274	930.81775	899.2934	-1322.11023	942.00739	1046.48279	-1279.37793	610.63464	825.64374	-1332.98328	441.17465	868.86627	-1459.9624	285.04825	869.39301	-1572.19568	105.93855	914.41034	-1626.46899	91.67432	945.29907	-1447.4104	26.88443	964.21399	-1151.60559	629.66693	1145.80334	-1070.8595	471.34897	1108.99695	-1052.49951	281.70822	1122.49072	-1001.3219	67.71643	1087.07898	-1035.40356	27.62167	1035.03418	-855.45276	55.81597	1065.12329	-1250.7179	1644.698	938.8186	NaN	NaN	NaN	NaN	NaN	NaN	NaN	NaN	NaN	NaN	NaN	NaN	NaN	NaN	NaN	NaN	NaN	NaN	NaN	NaN	NaN
3	0.02	-1139.81653	1597.93469	901.78754	-1157.66492	1605.05811	1033.51367	-1259.66187	1534.0304	893.39868	-1271.76074	1541.30737	1023.40472	-1275.00391	1382.4375	949.35797	-1304.59546	1072.974	951.17432	-1150.08948	1309.98376	965.62488	-1103.2417	1144.70325	962.6438	-1333.9823	1207.31348	1029.59961	-1179.41333	1349.80249	805.75299	-1146.85901	1159.84167	734.49042	-1102.98462	1045.86768	732.50519	-1013.20355	964.54047	765.9411	-936.52386	895.89545	830.19482	-942.61328	876.16638	778.48102	-878.49213	834.53369	811.19855	-1220.80591	1330.60205	1117.8811	-1276.84546	1112.81458	1178.67932	-1293.64111	1000.22632	1187.96155	-1328.78186	866.89063	1188.56946	-1332.93787	764.75049	1156.24365	-1370.14563	774.81708	1196.09167	-1384.57349	699.40289	1180.9707	-1147.35706	899.9035	847.93732	-1144.87402	917.39734	1085.08289	-1307.66089	930.3562	901.17084	-1306.96436	941.78119	1048.21924	-1264.74683	609.87073	826.0683	-1318.13098	439.87836	867.96295	-1449.88977	286.93103	868.69446	-1567.05481	111.27858	913.88074	-1621.85461	99.72	944.4928	-1446.85339	26.74689	964.05426	-1133.9967	630.30524	1145.98474	-1054.78687	471.52747	1108.68872	-1041.61646	280.31982	1120.43298	-994.82825	67.31674	1086.73718	-1032.67676	30.41458	1035.10291	-849.67023	42.46465	1059.95154	-1237.23438	1644.97205	940.31635	NaN	NaN	NaN	NaN	NaN	NaN	NaN	NaN	NaN	NaN	NaN	NaN	NaN	NaN	NaN	NaN	NaN	NaN	NaN	NaN	NaN
4	0.03	-1126.57324	1598.32153	903.32111	-1144.21118	1605.40527	1035.16199	-1246.547	1534.49451	895.12775	-1258.27026	1541.67139	1025.18628	-1262.06128	1382.33252	951.24268	-1289.80493	1072.64966	953.08337	-1136.40894	1310.55847	967.27411	-1088.75806	1145.60059	964.26416	-1319.78943	1206.5127	1031.24841	-1166.65161	1350.0332	807.24103	-1134.98755	1159.67358	735.57886	-1091.71204	1045.52197	733.1062	-1001.46252	965.47272	766.93103	-923.98236	898.20068	831.48071	-930.13647	877.93585	779.9502	-865.2132	837.52045	812.74121	-1207.19153	1330.77173	1119.68799	-1262.62378	1112.77539	1180.54163	-1279.23999	1000.16943	1189.75598	-1314.18701	866.71936	1190.30212	-1318.43372	764.68726	1158.15344	-1355.50562	774.68573	1197.97437	-1369.51477	699.23291	1183.12292	-1132.31592	899.68713	849.27985	-1129.521	917.89099	1086.44641	-1292.99597	930.0636	902.85999	-1291.37415	942.06177	1049.86731	-1249.40906	609.10504	826.26172	-1302.09985	438.47025	866.93683	-1438.77795	289.0983	868.11475	-1561.35828	117.82623	912.85071	-1615.95142	108.90286	943.74774	-1446.13135	26.70024	963.98914	-1116.92957	631.95355	1146.63062	-1039.33777	472.57703	1108.65295	-1029.03564	281.38824	1120.10181	-986.6264	67.21429	1086.77136	-1029.44641	32.73348	1037.82971	-843.88165	37.14672	1056.03333	-1223.88098	1645.479	942.87494	NaN	NaN	NaN	NaN	NaN	NaN	NaN	NaN	NaN	NaN	NaN	NaN	NaN	NaN	NaN	NaN	NaN	NaN	NaN	NaN	NaN
5	0.04	-1113.36377	1599.24329	904.73218	-1130.76392	1606.38794	1036.63293	-1233.44775	1535.5553	896.85718	-1245.01758	1542.76794	1026.99463	-1248.92029	1382.745	953.14203	-1275.11523	1072.95728	954.6012	-1122.74939	1311.66614	968.82721	-1074.39514	1146.8313	965.87909	-1305.62988	1206.16357	1032.88452	-1153.77136	1350.69739	808.55695	-1123.18787	1159.84399	736.70966	-1080.81775	1045.55518	733.78516	-990.08636	966.24097	767.70966	-911.99487	900.01044	832.46643	-918.1333	879.26776	781.14246	-852.71082	839.94922	813.93079	-1193.43042	1331.21924	1121.43896	-1248.03845	1113.01587	1182.42468	-1264.31519	1000.35675	1191.62781	-1298.91064	866.79773	1192.25806	-1302.90295	764.72754	1159.99939	-1339.88611	774.5976	1199.98621	-1353.34875	699.13916	1185.55542	-1117.27661	899.85376	850.58478	-1114.19482	918.92383	1087.71204	-1278.0968	930.06146	904.40094	-1275.76758	943.31122	1051.271	-1233.06775	608.36682	826.51208	-1284.61389	436.95068	865.49536	-1426.36084	291.58484	867.37982	-1554.48291	124.87064	911.9884	-1608.63074	119.06776	943.74951	-1445.15576	26.70329	964.05682	-1101.09998	634.00006	1147.56384	-1024.19507	474.70413	1108.89722	-1014.6582	283.49826	1121.88794	-981.7572	67.42897	1086.41675	-1027.09863	34.31315	1038.02209	-840.11694	34.58959	1059.3125	-1210.69543	1646.09192	944.14569	NaN	NaN	NaN	NaN	NaN	NaN	NaN	NaN	NaN	NaN	NaN	NaN	NaN	NaN	NaN	NaN	NaN	NaN	NaN	NaN	NaN
6	0.05	-1100.17444	1600.54846	906.07007	-1117.27039	1607.74854	1037.95447	-1220.39478	1537.0144	898.47589	-1231.52893	1544.32312	1028.42944	-1235.48096	1383.72449	955.00293	-1260.66431	1073.86401	955.84119	-1109.14392	1313.20483	970.3313	-1060.03577	1148.61145	967.513	-1291.60254	1206.47266	1034.66577	-1140.7666	1351.78833	809.7655	-1111.44519	1160.39001	737.6889	-1069.86389	1045.79944	734.39612	-979.06104	966.83997	768.35828	-900.55963	901.40619	833.17322	-906.90552	880.24634	782.07965	-840.99213	841.86499	814.62451	-1179.63306	1332.12854	1123.15222	-1233.08264	1113.61426	1184.33228	-1248.90393	1000.84564	1193.56689	-1282.79822	867.10138	1194.27002	-1286.53467	765.17047	1162.16516	-1323.33374	774.76538	1202.13672	-1336.13464	699.31293	1188.10181	-1102.33301	900.28339	852.09668	-1098.87122	920.71704	1089.00146	-1263.0542	930.23987	905.73737	-1260.62451	945.10303	1052.46899	-1215.84082	607.55682	826.57275	-1265.57422	435.32889	863.6261	-1412.31384	294.28635	866.7793	-1546.29089	132.74329	911.69751	-1599.32495	130.32535	944.36932	-1444.2428	26.50767	963.89948	-1085.88745	636.10773	1148.17578	-1008.17285	477.62668	1108.21606	-1001.31042	285.04291	1121.94275	-980.19464	67.73728	1085.1593	-1026.34473	34.82642	1037.13794	-839.15759	33.79428	1062.09216	-1197.40613	1647.72058	945.52643	NaN	NaN	NaN	NaN	NaN	NaN	NaN	NaN	NaN	NaN	NaN	NaN	NaN	NaN	NaN	NaN	NaN	NaN	NaN	NaN	NaN
7	0.06	-1087.04138	1602.04919	907.32208	-1103.81262	1609.32068	1039.23718	-1207.323	1538.68677	900.03259	-1218.203	1546.06274	1030.10217	-1221.80066	1385.14441	956.76733	-1246.45508	1075.07849	956.95782	-1095.5896	1314.99622	971.75757	-1045.9115	1150.18359	968.94635	-1277.6405	1207.46301	1036.61353	-1127.68384	1353.22766	811.02972	-1099.86487	1161.47681	738.81384	-1059.11292	1046.46753	735.12476	-968.39319	967.52319	768.96155	-889.7605	902.3313	833.59497	-896.36383	880.91974	782.68945	-830.02521	843.19305	814.98163	-1165.70313	1333.45789	1124.7467	-1217.75769	1114.56152	1186.21094	-1232.97424	1001.71881	1195.49194	-1265.90979	867.77905	1196.37769	-1269.19287	765.9353	1164.297	-1305.72046	775.15375	1204.49084	-1317.73962	699.60522	1190.823	-1087.6134	901.0036	853.75574	-1083.77002	923.21729	1090.07825	-1248.07214	930.61652	906.8916	-1245.82642	947.04865	1053.49011	-1197.81299	606.82416	826.55505	-1244.87085	433.65503	861.35632	-1396.60254	297.21719	866.08527	-1535.46301	140.9938	911.75494	-1587.08435	142.15349	945.54077	-1443.11084	26.40718	963.96118	-1070.41309	638.28094	1147.87805	-991.83893	480.36945	1106.6156	-990.12067	285.95633	1121.40454	-979.31873	68.32092	1084.22437	-1026.00208	34.89651	1037.06079	-838.61328	33.23893	1059.46228	-1184.00549	1649.4425	946.83112	NaN	NaN	NaN	NaN	NaN	NaN	NaN	NaN	NaN	NaN	NaN	NaN	NaN	NaN	NaN	NaN	NaN	NaN	NaN	NaN	NaN
